<svg xmlns="http://www.w3.org/2000/svg" viewBox="0 0 58 11" shape-rendering="crispEdges">
  <!-- Pixel Town horizontal wordmark -- foreground only (no background fill)
       Composite on brand_teal (#2E6E78) for standard lockup,
       or add 1px deep_brown (#3A2A1B) outline for photographic backgrounds. -->
  <g fill="#F8EDD4">
    <g transform="translate(2,2)">
      <path d="M0,0 h4 v1 h-4 Z M0,1 h1 v2 h-1 Z M4,1 h1 v2 h-1 Z M0,3 h4 v1 h-4 Z M0,4 h1 v3 h-1 Z"/>
    </g>
    <g transform="translate(8,2)">
      <path d="M0,0 h3 v1 h-3 Z M1,1 h1 v5 h-1 Z M0,6 h3 v1 h-3 Z"/>
    </g>
    <g transform="translate(12,2)">
      <path d="M0,0 h1 v1 h-1 Z M4,0 h1 v1 h-1 Z M1,1 h1 v2 h-1 Z M3,1 h1 v2 h-1 Z M2,3 h1 v1 h-1 Z M1,4 h1 v2 h-1 Z M3,4 h1 v2 h-1 Z M0,6 h1 v1 h-1 Z M4,6 h1 v1 h-1 Z"/>
    </g>
    <g transform="translate(18,2)">
      <path d="M0,0 h5 v1 h-5 Z M0,1 h1 v2 h-1 Z M0,3 h4 v1 h-4 Z M0,4 h1 v2 h-1 Z M0,6 h5 v1 h-5 Z"/>
    </g>
    <g transform="translate(24,2)">
      <path d="M0,0 h1 v6 h-1 Z M0,6 h5 v1 h-5 Z"/>
    </g>
    <g transform="translate(33,2)">
      <path d="M0,0 h5 v1 h-5 Z M2,1 h1 v6 h-1 Z"/>
    </g>
    <g transform="translate(39,2)">
      <path d="M1,0 h3 v1 h-3 Z M0,1 h1 v5 h-1 Z M4,1 h1 v5 h-1 Z M1,6 h3 v1 h-3 Z"/>
    </g>
    <g transform="translate(45,2)">
      <path d="M0,0 h1 v4 h-1 Z M4,0 h1 v4 h-1 Z M0,4 h1 v1 h-1 Z M2,4 h1 v1 h-1 Z M4,4 h1 v1 h-1 Z M0,5 h2 v1 h-2 Z M3,5 h2 v1 h-2 Z M0,6 h1 v1 h-1 Z M4,6 h1 v1 h-1 Z"/>
    </g>
    <g transform="translate(51,2)">
      <path d="M0,0 h1 v1 h-1 Z M4,0 h1 v1 h-1 Z M0,1 h2 v1 h-2 Z M4,1 h1 v1 h-1 Z M0,2 h1 v1 h-1 Z M2,2 h1 v1 h-1 Z M4,2 h1 v1 h-1 Z M0,3 h1 v1 h-1 Z M3,3 h2 v1 h-2 Z M0,4 h1 v3 h-1 Z M4,4 h1 v3 h-1 Z"/>
    </g>
  </g>
</svg>
