<svg xmlns="http://www.w3.org/2000/svg" viewBox="0 0 1080 1080" shape-rendering="crispEdges">
  <!--
    Pixel Town — Square Social Post
    Size: 1080×1080 (Instagram / Facebook square)
    Layout (per brand brief §11):
      - Iconmark top-center with brand_teal pill bg
      - 4-up gameplay grid below: farm / town / relationship / family
    Colors: brand brief §5
  -->

  <!-- Background -->
  <rect width="1080" height="1080" fill="#F8EDD4"/>

  <!-- Top brand bar -->
  <rect width="1080" height="200" fill="#2E6E78"/>
  <rect y="197" width="1080" height="3" fill="#3A2A1B"/>

  <!-- Iconmark centered in top bar, scaled 10× (64×64 → 640×640) — use stacked logo scaled 6× (33×21 → 198×126) -->
  <g transform="translate(441, 37) scale(6)" fill="#F8EDD4" shape-rendering="crispEdges">
    <!-- PIXEL top row -->
    <path d="M0,0 h4 v1 h-4 Z M0,1 h1 v2 h-1 Z M4,1 h1 v2 h-1 Z M0,3 h4 v1 h-4 Z M0,4 h1 v3 h-1 Z"/>
    <path d="M6,0 h3 v1 h-3 Z M7,1 h1 v5 h-1 Z M6,6 h3 v1 h-3 Z"/>
    <path d="M10,0 h1 v1 h-1 Z M14,0 h1 v1 h-1 Z M11,1 h1 v2 h-1 Z M13,1 h1 v2 h-1 Z M12,3 h1 v1 h-1 Z M11,4 h1 v2 h-1 Z M13,4 h1 v2 h-1 Z M10,6 h1 v1 h-1 Z M14,6 h1 v1 h-1 Z"/>
    <path d="M16,0 h5 v1 h-5 Z M16,1 h1 v2 h-1 Z M16,3 h4 v1 h-4 Z M16,4 h1 v2 h-1 Z M16,6 h5 v1 h-5 Z"/>
    <path d="M22,0 h1 v6 h-1 Z M22,6 h5 v1 h-5 Z"/>
    <!-- TOWN row 2 — centered in 33px width (offset x=2) -->
    <path d="M2,10 h5 v1 h-5 Z M4,11 h1 v6 h-1 Z"/>
    <path d="M10,10 h3 v1 h-3 Z M9,11 h1 v5 h-1 Z M13,11 h1 v5 h-1 Z M10,16 h3 v1 h-3 Z"/>
    <path d="M15,10 h1 v4 h-1 Z M19,10 h1 v4 h-1 Z M15,14 h1 v1 h-1 Z M17,14 h1 v1 h-1 Z M19,14 h1 v1 h-1 Z M15,15 h2 v1 h-2 Z M18,15 h2 v1 h-2 Z M15,16 h1 v1 h-1 Z M19,16 h1 v1 h-1 Z"/>
    <path d="M21,10 h1 v1 h-1 Z M25,10 h1 v1 h-1 Z M21,11 h2 v1 h-2 Z M25,11 h1 v1 h-1 Z M21,12 h1 v1 h-1 Z M23,12 h1 v1 h-1 Z M25,12 h1 v1 h-1 Z M21,13 h1 v1 h-1 Z M24,13 h2 v1 h-2 Z M21,14 h1 v3 h-1 Z M25,14 h1 v3 h-1 Z"/>
  </g>

  <!-- Grid divider lines -->
  <rect x="3" y="203" width="1074" height="3" fill="#3A2A1B"/>
  <rect x="540" y="203" width="3" height="877" fill="#3A2A1B"/>
  <rect x="3" y="640" width="1074" height="3" fill="#3A2A1B"/>
  <rect x="3" y="203" width="3" height="877" fill="#3A2A1B"/>
  <rect x="1074" y="203" width="3" height="877" fill="#3A2A1B"/>
  <rect x="3" y="1077" width="1074" height="3" fill="#3A2A1B"/>

  <!-- ===== CELL 1 (top-left): Farm / crops ===== -->
  <rect x="6" y="206" width="531" height="431" fill="#A8DADC"/>
  <!-- Sky -->
  <rect x="6" y="206" width="531" height="200" fill="#A8DADC"/>
  <!-- Sun -->
  <circle cx="460" cy="280" r="44" fill="#F5C26B" opacity="0.9"/>
  <!-- Ground -->
  <rect x="6" y="406" width="531" height="231" fill="#6A994E"/>
  <rect x="6" y="406" width="531" height="4" fill="#3A2A1B" opacity="0.4"/>
  <!-- Tilled rows -->
  <g fill="#3A2A1B" opacity="0.2">
    <rect x="6" y="430" width="531" height="3"/>
    <rect x="6" y="460" width="531" height="3"/>
    <rect x="6" y="490" width="531" height="3"/>
    <rect x="6" y="520" width="531" height="3"/>
    <rect x="6" y="550" width="531" height="3"/>
    <rect x="6" y="580" width="531" height="3"/>
    <rect x="6" y="610" width="531" height="3"/>
  </g>
  <!-- Crop plants row -->
  <g transform="translate(30, 410)">
    <!-- Mature -->
    <g transform="translate(0,0)"><rect x="6" y="2" width="4" height="16" fill="#6A994E"/><rect x="0" y="0" width="16" height="10" fill="#6A994E"/><circle cx="8" cy="14" r="5" fill="#C84630"/></g>
    <g transform="translate(48,0)"><rect x="6" y="2" width="4" height="16" fill="#6A994E"/><rect x="0" y="0" width="16" height="10" fill="#6A994E"/><circle cx="8" cy="14" r="5" fill="#C84630"/></g>
    <g transform="translate(96,0)"><rect x="6" y="2" width="4" height="16" fill="#6A994E"/><rect x="0" y="0" width="16" height="10" fill="#6A994E"/><circle cx="8" cy="14" r="5" fill="#F5C26B"/></g>
    <g transform="translate(144,0)"><rect x="6" y="2" width="4" height="16" fill="#6A994E"/><rect x="2" y="0" width="12" height="8" fill="#6A994E"/></g>
    <g transform="translate(192,0)"><rect x="6" y="6" width="4" height="12" fill="#6A994E"/></g>
    <g transform="translate(240,0)"><rect x="6" y="2" width="4" height="16" fill="#6A994E"/><rect x="0" y="0" width="16" height="10" fill="#6A994E"/><circle cx="8" cy="14" r="5" fill="#C84630"/></g>
    <g transform="translate(288,0)"><rect x="6" y="2" width="4" height="16" fill="#6A994E"/><rect x="0" y="0" width="16" height="10" fill="#6A994E"/><circle cx="8" cy="14" r="5" fill="#C84630"/></g>
    <g transform="translate(336,0)"><rect x="6" y="2" width="4" height="16" fill="#6A994E"/><rect x="2" y="0" width="12" height="8" fill="#6A994E"/></g>
    <g transform="translate(384,0)"><rect x="6" y="6" width="4" height="12" fill="#6A994E"/></g>
    <g transform="translate(432,0)"><rect x="6" y="2" width="4" height="16" fill="#6A994E"/><rect x="0" y="0" width="16" height="10" fill="#6A994E"/><circle cx="8" cy="14" r="5" fill="#F5C26B"/></g>
    <g transform="translate(480,0)"><rect x="6" y="2" width="4" height="16" fill="#6A994E"/><rect x="2" y="0" width="12" height="8" fill="#6A994E"/></g>
  </g>
  <!-- Player watering character (small) -->
  <g transform="translate(200, 440)">
    <rect x="8" y="24" width="24" height="28" fill="#2E6E78"/>
    <rect x="10" y="8" width="20" height="20" fill="#F8EDD4"/>
    <rect x="8" y="6" width="24" height="24" fill="none" stroke="#3A2A1B" stroke-width="2"/>
    <rect x="8" y="6" width="24" height="6" fill="#F5C26B"/>
    <rect x="12" y="18" width="4" height="4" fill="#3A2A1B"/>
    <rect x="24" y="18" width="4" height="4" fill="#3A2A1B"/>
    <rect x="10" y="52" width="8" height="12" fill="#3A2A1B"/>
    <rect x="22" y="52" width="8" height="12" fill="#3A2A1B"/>
    <!-- Watering can arm -->
    <rect x="-16" y="30" width="24" height="8" fill="#2E6E78"/>
    <rect x="-32" y="22" width="18" height="14" fill="#B7AB98"/>
    <rect x="-34" y="20" width="22" height="18" fill="none" stroke="#3A2A1B" stroke-width="2"/>
    <g fill="#A8DADC"><rect x="-36" y="40" width="3" height="6"/><rect x="-29" y="44" width="3" height="6"/><rect x="-22" y="38" width="3" height="6"/></g>
  </g>
  <!-- Cell label -->
  <text x="271" y="628" font-family="monospace" font-size="26" fill="#2E6E78" text-anchor="middle" font-weight="bold">FARM</text>

  <!-- ===== CELL 2 (top-right): Town square ===== -->
  <rect x="543" y="206" width="531" height="431" fill="#A8DADC"/>
  <!-- Sky (midday) -->
  <rect x="543" y="206" width="531" height="220" fill="#A8DADC"/>
  <!-- Sun high -->
  <circle cx="760" cy="260" r="36" fill="#F5C26B" opacity="0.95"/>
  <!-- Ground -->
  <rect x="543" y="426" width="531" height="211" fill="#6A994E"/>
  <!-- Cobblestone square -->
  <rect x="700" y="426" width="216" height="211" fill="#B7AB98"/>
  <g fill="#3A2A1B" opacity="0.25">
    <rect x="700" y="426" width="216" height="1"/>
    <rect x="700" y="458" width="216" height="1"/>
    <rect x="700" y="490" width="216" height="1"/>
    <rect x="700" y="522" width="216" height="1"/>
    <rect x="700" y="554" width="216" height="1"/>
    <rect x="700" y="586" width="216" height="1"/>
    <rect x="700" y="426" width="1" height="211"/>
    <rect x="772" y="426" width="1" height="211"/>
    <rect x="844" y="426" width="1" height="211"/>
    <rect x="916" y="426" width="1" height="211"/>
  </g>
  <!-- Town hall (center background) -->
  <g transform="translate(700, 290)">
    <rect x="0" y="96" width="216" height="200" fill="#EAE0CC"/>
    <rect x="0" y="96" width="216" height="3" fill="#3A2A1B"/>
    <polygon points="108,0 216,96 0,96" fill="#2E6E78"/>
    <rect x="0" y="93" width="216" height="3" fill="#3A2A1B"/>
    <rect x="89" y="196" width="48" height="100" fill="#3A2A1B"/>
    <rect x="97" y="204" width="16" height="40" fill="#A8DADC"/>
    <rect x="117" y="204" width="16" height="40" fill="#A8DADC"/>
    <!-- Flagpole -->
    <rect x="105" y="-32" width="4" height="48" fill="#3A2A1B"/>
    <rect x="109" y="-32" width="32" height="20" fill="#F8EDD4"/>
  </g>
  <!-- NPCs on square -->
  <g transform="translate(720, 480)">
    <rect x="8" y="20" width="20" height="28" fill="#E07A5F"/>
    <rect x="10" y="8" width="16" height="16" fill="#F8EDD4"/>
    <rect x="8" y="6" width="20" height="20" fill="none" stroke="#3A2A1B" stroke-width="2"/>
    <rect x="11" y="12" width="4" height="4" fill="#3A2A1B"/>
    <rect x="21" y="12" width="4" height="4" fill="#3A2A1B"/>
    <rect x="10" y="48" width="6" height="12" fill="#3A2A1B"/>
    <rect x="20" y="48" width="6" height="12" fill="#3A2A1B"/>
  </g>
  <g transform="translate(840, 476)">
    <rect x="8" y="20" width="20" height="28" fill="#2E6E78"/>
    <rect x="10" y="8" width="16" height="16" fill="#F8EDD4"/>
    <rect x="8" y="6" width="20" height="20" fill="none" stroke="#3A2A1B" stroke-width="2"/>
    <rect x="11" y="12" width="4" height="4" fill="#3A2A1B"/>
    <rect x="21" y="12" width="4" height="4" fill="#3A2A1B"/>
    <rect x="10" y="48" width="6" height="12" fill="#3A2A1B"/>
    <rect x="20" y="48" width="6" height="12" fill="#3A2A1B"/>
  </g>
  <!-- Trees flanking town hall -->
  <g transform="translate(648, 380)">
    <rect x="8" y="48" width="8" height="56" fill="#3A2A1B"/>
    <rect x="0" y="20" width="24" height="36" fill="#6A994E"/>
    <rect x="4" y="6" width="16" height="24" fill="#6A994E"/>
    <rect x="6" y="0" width="12" height="14" fill="#6A994E"/>
  </g>
  <g transform="translate(968, 380)">
    <rect x="8" y="48" width="8" height="56" fill="#3A2A1B"/>
    <rect x="0" y="20" width="24" height="36" fill="#6A994E"/>
    <rect x="4" y="6" width="16" height="24" fill="#6A994E"/>
    <rect x="6" y="0" width="12" height="14" fill="#6A994E"/>
  </g>
  <text x="808" y="628" font-family="monospace" font-size="26" fill="#2E6E78" text-anchor="middle" font-weight="bold">TOWN</text>

  <!-- ===== CELL 3 (bottom-left): Relationship / dialogue ===== -->
  <rect x="6" y="643" width="531" height="431" fill="#EAE0CC"/>
  <!-- Dialogue panel -->
  <rect x="30" y="670" width="483" height="180" fill="#6D5A7E"/>
  <rect x="28" y="668" width="487" height="184" fill="none" stroke="#3A2A1B" stroke-width="3"/>
  <!-- Dialogue portrait frame (left) -->
  <rect x="46" y="686" width="96" height="96" fill="#F8EDD4"/>
  <rect x="44" y="684" width="100" height="100" fill="none" stroke="#3A2A1B" stroke-width="3"/>
  <!-- NPC face in portrait -->
  <rect x="60" y="698" width="64" height="64" fill="#F8EDD4"/>
  <rect x="58" y="696" width="68" height="68" fill="none" stroke="#3A2A1B" stroke-width="2"/>
  <rect x="64" y="706" width="10" height="10" fill="#3A2A1B"/>
  <rect x="82" y="706" width="10" height="10" fill="#3A2A1B"/>
  <rect x="68" y="726" width="20" height="6" fill="#3A2A1B"/>
  <rect x="60" y="696" width="68" height="14" fill="#3A2A1B"/>
  <!-- Dialogue text lines (pixel-style bars) -->
  <rect x="162" y="700" width="320" height="8" fill="#F8EDD4" opacity="0.9" rx="2"/>
  <rect x="162" y="720" width="280" height="8" fill="#F8EDD4" opacity="0.9" rx="2"/>
  <rect x="162" y="740" width="300" height="8" fill="#F8EDD4" opacity="0.7" rx="2"/>
  <rect x="162" y="760" width="200" height="8" fill="#F8EDD4" opacity="0.7" rx="2"/>
  <!-- Blinking cursor -->
  <rect x="370" y="760" width="8" height="8" fill="#F5C26B"/>
  <!-- Hearts UI bar (top of scene) -->
  <g fill="#E07A5F">
    <rect x="48" y="810" width="24" height="24"/>
    <rect x="80" y="810" width="24" height="24"/>
    <rect x="112" y="810" width="24" height="24"/>
    <rect x="144" y="810" width="24" height="24"/>
    <rect x="176" y="810" width="24" height="24" opacity="0.3"/>
    <rect x="208" y="810" width="24" height="24" opacity="0.3"/>
  </g>
  <text x="296" y="832" font-family="monospace" font-size="20" fill="#6D5A7E">Relationship: 68%</text>
  <!-- Two characters side by side -->
  <g transform="translate(120, 858)">
    <!-- Player -->
    <rect x="8" y="24" width="24" height="32" fill="#2E6E78"/>
    <rect x="10" y="10" width="20" height="20" fill="#F8EDD4"/>
    <rect x="8" y="8" width="24" height="24" fill="none" stroke="#3A2A1B" stroke-width="2"/>
    <rect x="12" y="16" width="4" height="4" fill="#3A2A1B"/>
    <rect x="24" y="16" width="4" height="4" fill="#3A2A1B"/>
    <rect x="10" y="56" width="8" height="14" fill="#3A2A1B"/>
    <rect x="22" y="56" width="8" height="14" fill="#3A2A1B"/>
  </g>
  <g transform="translate(260, 856)">
    <!-- NPC -->
    <rect x="8" y="24" width="24" height="32" fill="#E07A5F"/>
    <rect x="10" y="10" width="20" height="20" fill="#F8EDD4"/>
    <rect x="8" y="8" width="24" height="24" fill="none" stroke="#3A2A1B" stroke-width="2"/>
    <rect x="10" y="8" width="24" height="8" fill="#3A2A1B"/>
    <rect x="12" y="16" width="4" height="4" fill="#3A2A1B"/>
    <rect x="24" y="16" width="4" height="4" fill="#3A2A1B"/>
    <rect x="10" y="56" width="8" height="14" fill="#3A2A1B"/>
    <rect x="22" y="56" width="8" height="14" fill="#3A2A1B"/>
    <!-- Gift -->
    <rect x="-16" y="28" width="16" height="16" fill="#E07A5F"/>
    <rect x="-18" y="26" width="20" height="20" fill="none" stroke="#3A2A1B" stroke-width="2"/>
    <rect x="-10" y="22" width="4" height="8" fill="#F5C26B"/>
  </g>
  <!-- Big heart between them -->
  <g fill="#E07A5F" transform="translate(196, 840)">
    <rect x="0" y="8" width="8" height="8"/>
    <rect x="8" y="0" width="8" height="8"/>
    <rect x="8" y="8" width="8" height="8"/>
    <rect x="16" y="8" width="8" height="8"/>
    <rect x="0" y="16" width="8" height="16"/>
    <rect x="8" y="16" width="8" height="16"/>
    <rect x="16" y="16" width="8" height="16"/>
    <rect x="4" y="32" width="16" height="8"/>
    <rect x="8" y="40" width="8" height="8"/>
  </g>
  <text x="271" y="1068" font-family="monospace" font-size="26" fill="#6D5A7E" text-anchor="middle" font-weight="bold">RELATIONSHIPS</text>

  <!-- ===== CELL 4 (bottom-right): Family tree ===== -->
  <rect x="543" y="643" width="531" height="431" fill="#EAE0CC"/>
  <!-- Family tree panel -->
  <rect x="563" y="663" width="491" height="380" fill="#DAD2BC"/>
  <rect x="561" y="661" width="495" height="384" fill="none" stroke="#3A2A1B" stroke-width="3"/>
  <!-- Tree title -->
  <text x="808" y="702" font-family="monospace" font-size="22" fill="#3A2A1B" text-anchor="middle" font-weight="bold">FAMILY TREE</text>
  <!-- Generation 1 - top two characters (grandparents) -->
  <!-- Grandpa -->
  <g transform="translate(630, 718)">
    <rect x="8" y="20" width="24" height="28" fill="#2E6E78"/>
    <rect x="10" y="8" width="20" height="18" fill="#F8EDD4"/>
    <rect x="8" y="6" width="24" height="22" fill="none" stroke="#3A2A1B" stroke-width="2"/>
    <rect x="8" y="6" width="24" height="8" fill="#B7AB98"/>
    <rect x="12" y="14" width="4" height="4" fill="#3A2A1B"/>
    <rect x="22" y="14" width="4" height="4" fill="#3A2A1B"/>
    <rect x="10" y="48" width="8" height="12" fill="#3A2A1B"/>
    <rect x="22" y="48" width="8" height="12" fill="#3A2A1B"/>
    <!-- Name plate -->
    <rect x="0" y="64" width="40" height="14" fill="#F8EDD4" rx="2"/>
    <rect x="-2" y="62" width="44" height="18" fill="none" stroke="#3A2A1B" stroke-width="1"/>
    <text x="20" y="75" font-family="monospace" font-size="10" fill="#3A2A1B" text-anchor="middle">Grandpa</text>
  </g>
  <!-- Grandma -->
  <g transform="translate(944, 718)">
    <rect x="8" y="20" width="24" height="28" fill="#E07A5F"/>
    <rect x="10" y="8" width="20" height="18" fill="#F8EDD4"/>
    <rect x="8" y="6" width="24" height="22" fill="none" stroke="#3A2A1B" stroke-width="2"/>
    <rect x="8" y="6" width="24" height="8" fill="#3A2A1B"/>
    <rect x="12" y="14" width="4" height="4" fill="#3A2A1B"/>
    <rect x="22" y="14" width="4" height="4" fill="#3A2A1B"/>
    <rect x="10" y="48" width="8" height="12" fill="#3A2A1B"/>
    <rect x="22" y="48" width="8" height="12" fill="#3A2A1B"/>
    <rect x="0" y="64" width="44" height="14" fill="#F8EDD4" rx="2"/>
    <rect x="-2" y="62" width="48" height="18" fill="none" stroke="#3A2A1B" stroke-width="1"/>
    <text x="22" y="75" font-family="monospace" font-size="10" fill="#3A2A1B" text-anchor="middle">Grandma</text>
  </g>
  <!-- Tree connector lines Gen 1 -->
  <rect x="660" y="766" width="296" height="3" fill="#3A2A1B"/>
  <rect x="806" y="766" width="3" height="48" fill="#3A2A1B"/>
  <!-- Gen 1 marriage heart -->
  <g fill="#E07A5F" transform="translate(790, 740)">
    <rect x="0" y="4" width="4" height="4"/><rect x="4" y="0" width="4" height="4"/><rect x="4" y="4" width="4" height="4"/>
    <rect x="8" y="4" width="4" height="4"/><rect x="0" y="8" width="4" height="8"/>
    <rect x="4" y="8" width="4" height="8"/><rect x="8" y="8" width="4" height="8"/>
    <rect x="2" y="16" width="8" height="4"/><rect x="4" y="20" width="4" height="4"/>
  </g>
  <!-- Generation 2 - child couple (middle) -->
  <g transform="translate(760, 814)">
    <rect x="8" y="20" width="24" height="28" fill="#2E6E78"/>
    <rect x="10" y="8" width="20" height="18" fill="#F8EDD4"/>
    <rect x="8" y="6" width="24" height="22" fill="none" stroke="#3A2A1B" stroke-width="2"/>
    <rect x="12" y="14" width="4" height="4" fill="#3A2A1B"/>
    <rect x="22" y="14" width="4" height="4" fill="#3A2A1B"/>
    <rect x="10" y="48" width="8" height="12" fill="#3A2A1B"/>
    <rect x="22" y="48" width="8" height="12" fill="#3A2A1B"/>
    <rect x="-4" y="64" width="48" height="14" fill="#F5C26B" rx="2"/>
    <rect x="-6" y="62" width="52" height="18" fill="none" stroke="#3A2A1B" stroke-width="1"/>
    <text x="20" y="75" font-family="monospace" font-size="10" fill="#3A2A1B" text-anchor="middle">You</text>
  </g>
  <g transform="translate(844, 814)">
    <rect x="8" y="20" width="24" height="28" fill="#E07A5F"/>
    <rect x="10" y="8" width="20" height="18" fill="#F8EDD4"/>
    <rect x="8" y="6" width="24" height="22" fill="none" stroke="#3A2A1B" stroke-width="2"/>
    <rect x="10" y="6" width="24" height="8" fill="#3A2A1B"/>
    <rect x="12" y="14" width="4" height="4" fill="#3A2A1B"/>
    <rect x="22" y="14" width="4" height="4" fill="#3A2A1B"/>
    <rect x="10" y="48" width="8" height="12" fill="#3A2A1B"/>
    <rect x="22" y="48" width="8" height="12" fill="#3A2A1B"/>
    <rect x="-4" y="64" width="52" height="14" fill="#F8EDD4" rx="2"/>
    <rect x="-6" y="62" width="56" height="18" fill="none" stroke="#3A2A1B" stroke-width="1"/>
    <text x="22" y="75" font-family="monospace" font-size="10" fill="#3A2A1B" text-anchor="middle">Spouse</text>
  </g>
  <!-- Gen 2 → 3 connector -->
  <rect x="808" y="896" width="3" height="40" fill="#3A2A1B"/>
  <!-- Gen 3 kids -->
  <g transform="translate(688, 936)">
    <rect x="8" y="14" width="16" height="20" fill="#2E6E78"/>
    <rect x="9" y="6" width="14" height="12" fill="#F8EDD4"/>
    <rect x="7" y="4" width="18" height="16" fill="none" stroke="#3A2A1B" stroke-width="2"/>
    <rect x="10" y="10" width="3" height="3" fill="#3A2A1B"/>
    <rect x="19" y="10" width="3" height="3" fill="#3A2A1B"/>
    <rect x="9" y="34" width="5" height="8" fill="#3A2A1B"/>
    <rect x="18" y="34" width="5" height="8" fill="#3A2A1B"/>
  </g>
  <g transform="translate(752, 936)">
    <rect x="8" y="14" width="16" height="20" fill="#E07A5F"/>
    <rect x="9" y="6" width="14" height="12" fill="#F8EDD4"/>
    <rect x="7" y="4" width="18" height="16" fill="none" stroke="#3A2A1B" stroke-width="2"/>
    <rect x="7" y="4" width="18" height="5" fill="#3A2A1B"/>
    <rect x="10" y="10" width="3" height="3" fill="#3A2A1B"/>
    <rect x="19" y="10" width="3" height="3" fill="#3A2A1B"/>
    <rect x="9" y="34" width="5" height="8" fill="#3A2A1B"/>
    <rect x="18" y="34" width="5" height="8" fill="#3A2A1B"/>
  </g>
  <g transform="translate(824, 936)">
    <rect x="8" y="14" width="16" height="20" fill="#2E6E78"/>
    <rect x="9" y="6" width="14" height="12" fill="#F8EDD4"/>
    <rect x="7" y="4" width="18" height="16" fill="none" stroke="#3A2A1B" stroke-width="2"/>
    <rect x="10" y="10" width="3" height="3" fill="#3A2A1B"/>
    <rect x="19" y="10" width="3" height="3" fill="#3A2A1B"/>
    <rect x="9" y="34" width="5" height="8" fill="#3A2A1B"/>
    <rect x="18" y="34" width="5" height="8" fill="#3A2A1B"/>
  </g>
  <!-- Kids connector line -->
  <rect x="700" y="934" width="144" height="3" fill="#3A2A1B"/>
  <rect x="700" y="934" width="3" height="6" fill="#3A2A1B"/>
  <rect x="760" y="934" width="3" height="6" fill="#3A2A1B"/>
  <rect x="841" y="934" width="3" height="6" fill="#3A2A1B"/>
  <!-- "3 generations" badge -->
  <rect x="900" y="930" width="128" height="36" fill="#2E6E78" rx="4"/>
  <rect x="898" y="928" width="132" height="40" fill="none" stroke="#3A2A1B" stroke-width="2" rx="4"/>
  <text x="964" y="954" font-family="monospace" font-size="18" fill="#F8EDD4" text-anchor="middle">3 Generations</text>
  <text x="808" y="1068" font-family="monospace" font-size="26" fill="#6D5A7E" text-anchor="middle" font-weight="bold">FAMILY</text>

  <!-- Bottom caption bar -->
  <rect y="1058" width="1080" height="22" fill="#2E6E78"/>
  <text x="540" y="1074" font-family="monospace" font-size="16" fill="#F8EDD4" text-anchor="middle">pixeltown.game  ·  Available on Google Play</text>
</svg>
